<mxfile host="app.diagrams.net" modified="2024-03-27T04:21:51.061Z" agent="Mozilla/5.0 (Windows NT 10.0; Win64; x64; rv:124.0) Gecko/20100101 Firefox/124.0" etag="XMtoRpNf1mfoB76HVS0T" version="24.1.0" type="device">
  <diagram name="Page-1" id="xld5hn-b0TKSg5bB-_ga">
    <mxGraphModel dx="4026" dy="2788" grid="1" gridSize="10" guides="1" tooltips="1" connect="1" arrows="1" fold="1" page="1" pageScale="1" pageWidth="850" pageHeight="1100" math="0" shadow="0">
      <root>
        <mxCell id="0" />
        <mxCell id="1" parent="0" />
        <mxCell id="0IAm7xfOWSde1sFOafxm-1" value="Public subnet" style="points=[[0,0],[0.25,0],[0.5,0],[0.75,0],[1,0],[1,0.25],[1,0.5],[1,0.75],[1,1],[0.75,1],[0.5,1],[0.25,1],[0,1],[0,0.75],[0,0.5],[0,0.25]];outlineConnect=0;gradientColor=none;html=1;whiteSpace=wrap;fontSize=12;fontStyle=0;container=1;pointerEvents=0;collapsible=0;recursiveResize=0;shape=mxgraph.aws4.group;grIcon=mxgraph.aws4.group_security_group;grStroke=0;strokeColor=#7AA116;fillColor=#F2F6E8;verticalAlign=top;align=left;spacingLeft=30;fontColor=#248814;dashed=0;" parent="1" vertex="1">
          <mxGeometry x="90" y="100" width="310" height="220" as="geometry" />
        </mxCell>
        <mxCell id="0IAm7xfOWSde1sFOafxm-3" value="Amazon EC2" style="sketch=0;outlineConnect=0;fontColor=#232F3E;gradientColor=none;strokeColor=#ffffff;fillColor=#232F3E;dashed=0;verticalLabelPosition=middle;verticalAlign=bottom;align=center;html=1;whiteSpace=wrap;fontSize=10;fontStyle=1;spacing=3;shape=mxgraph.aws4.productIcon;prIcon=mxgraph.aws4.ec2;" parent="0IAm7xfOWSde1sFOafxm-1" vertex="1">
          <mxGeometry x="20" y="100" width="80" height="100" as="geometry" />
        </mxCell>
        <mxCell id="0IAm7xfOWSde1sFOafxm-8" value="&lt;font style=&quot;font-size: 19px;&quot;&gt;&lt;b&gt;192.168.0.0/24&lt;/b&gt;&lt;/font&gt;" style="text;html=1;align=center;verticalAlign=middle;resizable=0;points=[];autosize=1;strokeColor=none;fillColor=none;" parent="0IAm7xfOWSde1sFOafxm-1" vertex="1">
          <mxGeometry x="130" width="150" height="40" as="geometry" />
        </mxCell>
        <mxCell id="0IAm7xfOWSde1sFOafxm-4" value="Private subnet" style="points=[[0,0],[0.25,0],[0.5,0],[0.75,0],[1,0],[1,0.25],[1,0.5],[1,0.75],[1,1],[0.75,1],[0.5,1],[0.25,1],[0,1],[0,0.75],[0,0.5],[0,0.25]];outlineConnect=0;gradientColor=none;html=1;whiteSpace=wrap;fontSize=12;fontStyle=0;container=1;pointerEvents=0;collapsible=0;recursiveResize=0;shape=mxgraph.aws4.group;grIcon=mxgraph.aws4.group_security_group;grStroke=0;strokeColor=#00A4A6;fillColor=#E6F6F7;verticalAlign=top;align=left;spacingLeft=30;fontColor=#147EBA;dashed=0;" parent="1" vertex="1">
          <mxGeometry x="80" y="440" width="340" height="240" as="geometry" />
        </mxCell>
        <mxCell id="0IAm7xfOWSde1sFOafxm-9" value="&lt;font style=&quot;font-size: 19px;&quot;&gt;&lt;b&gt;192.168.1.0/24&lt;/b&gt;&lt;/font&gt;" style="text;html=1;align=center;verticalAlign=middle;resizable=0;points=[];autosize=1;strokeColor=none;fillColor=none;" parent="0IAm7xfOWSde1sFOafxm-4" vertex="1">
          <mxGeometry x="140" y="10" width="150" height="40" as="geometry" />
        </mxCell>
        <mxCell id="0IAm7xfOWSde1sFOafxm-10" value="&lt;div&gt;&lt;font size=&quot;1&quot;&gt;&lt;b&gt;&lt;font style=&quot;font-size: 18px;&quot;&gt;ROUTE TABLE &lt;/font&gt;&lt;/b&gt;&lt;br&gt;&lt;/font&gt;&lt;/div&gt;" style="text;html=1;align=center;verticalAlign=middle;resizable=0;points=[];autosize=1;strokeColor=none;fillColor=none;" parent="0IAm7xfOWSde1sFOafxm-4" vertex="1">
          <mxGeometry x="20" y="120" width="150" height="40" as="geometry" />
        </mxCell>
        <mxCell id="0IAm7xfOWSde1sFOafxm-13" value="&lt;div style=&quot;font-size: 24px;&quot;&gt;&lt;b&gt;&lt;font style=&quot;font-size: 24px;&quot;&gt;10.200.0.0/16&lt;/font&gt;&lt;/b&gt;&lt;/div&gt;&lt;div style=&quot;font-size: 24px;&quot;&gt;&lt;b&gt;&lt;font style=&quot;font-size: 24px;&quot;&gt;10.100.0.0/16&lt;br&gt;&lt;/font&gt;&lt;/b&gt;&lt;/div&gt;" style="text;html=1;align=center;verticalAlign=middle;resizable=0;points=[];autosize=1;strokeColor=none;fillColor=none;" parent="0IAm7xfOWSde1sFOafxm-4" vertex="1">
          <mxGeometry x="10" y="150" width="170" height="70" as="geometry" />
        </mxCell>
        <mxCell id="0IAm7xfOWSde1sFOafxm-20" value="Amazon EC2" style="sketch=0;outlineConnect=0;fontColor=#232F3E;gradientColor=none;strokeColor=#ffffff;fillColor=#232F3E;dashed=0;verticalLabelPosition=middle;verticalAlign=bottom;align=center;html=1;whiteSpace=wrap;fontSize=10;fontStyle=1;spacing=3;shape=mxgraph.aws4.productIcon;prIcon=mxgraph.aws4.ec2;" parent="0IAm7xfOWSde1sFOafxm-4" vertex="1">
          <mxGeometry x="220" y="70" width="80" height="100" as="geometry" />
        </mxCell>
        <mxCell id="0IAm7xfOWSde1sFOafxm-6" value="Private subnet" style="points=[[0,0],[0.25,0],[0.5,0],[0.75,0],[1,0],[1,0.25],[1,0.5],[1,0.75],[1,1],[0.75,1],[0.5,1],[0.25,1],[0,1],[0,0.75],[0,0.5],[0,0.25]];outlineConnect=0;gradientColor=none;html=1;whiteSpace=wrap;fontSize=12;fontStyle=0;container=1;pointerEvents=0;collapsible=0;recursiveResize=0;shape=mxgraph.aws4.group;grIcon=mxgraph.aws4.group_security_group;grStroke=0;strokeColor=#00A4A6;fillColor=#E6F6F7;verticalAlign=top;align=left;spacingLeft=30;fontColor=#147EBA;dashed=0;" parent="1" vertex="1">
          <mxGeometry x="1010" y="460" width="400" height="240" as="geometry" />
        </mxCell>
        <mxCell id="0IAm7xfOWSde1sFOafxm-11" value="&lt;div&gt;&lt;font size=&quot;1&quot;&gt;&lt;b&gt;&lt;font style=&quot;font-size: 18px;&quot;&gt;ROUTE TABLE &lt;/font&gt;&lt;/b&gt;&lt;br&gt;&lt;/font&gt;&lt;/div&gt;" style="text;html=1;align=center;verticalAlign=middle;resizable=0;points=[];autosize=1;strokeColor=none;fillColor=none;" parent="0IAm7xfOWSde1sFOafxm-6" vertex="1">
          <mxGeometry x="10" y="130" width="150" height="40" as="geometry" />
        </mxCell>
        <mxCell id="0IAm7xfOWSde1sFOafxm-12" value="&lt;font style=&quot;font-size: 24px;&quot;&gt;&lt;b&gt;10.100.1.0/24&lt;/b&gt;&lt;/font&gt;" style="text;html=1;align=center;verticalAlign=middle;resizable=0;points=[];autosize=1;strokeColor=none;fillColor=none;" parent="0IAm7xfOWSde1sFOafxm-6" vertex="1">
          <mxGeometry x="160" y="10" width="170" height="40" as="geometry" />
        </mxCell>
        <mxCell id="0IAm7xfOWSde1sFOafxm-14" value="&lt;div style=&quot;font-size: 23px;&quot;&gt;&lt;b&gt;&lt;font style=&quot;font-size: 23px;&quot;&gt;192.168.0.0/16&lt;/font&gt;&lt;/b&gt;&lt;/div&gt;&lt;div style=&quot;font-size: 23px;&quot;&gt;&lt;b&gt;&lt;font style=&quot;font-size: 23px;&quot;&gt;10.200.0.0/16&lt;br&gt;&lt;/font&gt;&lt;/b&gt;&lt;/div&gt;" style="text;html=1;align=center;verticalAlign=middle;resizable=0;points=[];autosize=1;strokeColor=none;fillColor=none;" parent="0IAm7xfOWSde1sFOafxm-6" vertex="1">
          <mxGeometry x="5" y="155" width="180" height="70" as="geometry" />
        </mxCell>
        <mxCell id="0IAm7xfOWSde1sFOafxm-26" value="Amazon EC2" style="sketch=0;outlineConnect=0;fontColor=#232F3E;gradientColor=none;strokeColor=#ffffff;fillColor=#232F3E;dashed=0;verticalLabelPosition=middle;verticalAlign=bottom;align=center;html=1;whiteSpace=wrap;fontSize=10;fontStyle=1;spacing=3;shape=mxgraph.aws4.productIcon;prIcon=mxgraph.aws4.ec2;" parent="0IAm7xfOWSde1sFOafxm-6" vertex="1">
          <mxGeometry x="220" y="80" width="80" height="100" as="geometry" />
        </mxCell>
        <mxCell id="0IAm7xfOWSde1sFOafxm-16" value="" style="endArrow=classic;html=1;rounded=0;" parent="1" edge="1">
          <mxGeometry width="50" height="50" relative="1" as="geometry">
            <mxPoint x="520" y="560" as="sourcePoint" />
            <mxPoint x="850" y="560" as="targetPoint" />
          </mxGeometry>
        </mxCell>
        <mxCell id="0IAm7xfOWSde1sFOafxm-17" value="" style="endArrow=classic;html=1;rounded=0;" parent="1" edge="1">
          <mxGeometry width="50" height="50" relative="1" as="geometry">
            <mxPoint x="860" y="590" as="sourcePoint" />
            <mxPoint x="520" y="590" as="targetPoint" />
          </mxGeometry>
        </mxCell>
        <mxCell id="0IAm7xfOWSde1sFOafxm-28" value="VPC" style="sketch=0;outlineConnect=0;gradientColor=none;html=1;whiteSpace=wrap;fontSize=12;fontStyle=0;shape=mxgraph.aws4.group;grIcon=mxgraph.aws4.group_vpc;strokeColor=#879196;fillColor=none;verticalAlign=top;align=left;spacingLeft=30;fontColor=#879196;dashed=0;" parent="1" vertex="1">
          <mxGeometry x="-170" width="690" height="790" as="geometry" />
        </mxCell>
        <mxCell id="0IAm7xfOWSde1sFOafxm-29" value="VPC" style="sketch=0;outlineConnect=0;gradientColor=none;html=1;whiteSpace=wrap;fontSize=12;fontStyle=0;shape=mxgraph.aws4.group;grIcon=mxgraph.aws4.group_vpc;strokeColor=#879196;fillColor=none;verticalAlign=top;align=left;spacingLeft=30;fontColor=#879196;dashed=0;" parent="1" vertex="1">
          <mxGeometry x="860" width="630" height="800" as="geometry" />
        </mxCell>
        <mxCell id="0IAm7xfOWSde1sFOafxm-30" value="" style="endArrow=classic;html=1;rounded=0;" parent="1" edge="1">
          <mxGeometry width="50" height="50" relative="1" as="geometry">
            <mxPoint x="190" y="330" as="sourcePoint" />
            <mxPoint x="190" y="420" as="targetPoint" />
          </mxGeometry>
        </mxCell>
        <mxCell id="0IAm7xfOWSde1sFOafxm-31" value="&lt;font style=&quot;font-size: 26px;&quot;&gt;&lt;b&gt;SSH CONNECTION &lt;/b&gt;&lt;/font&gt;" style="text;html=1;align=center;verticalAlign=middle;resizable=0;points=[];autosize=1;strokeColor=none;fillColor=none;" parent="1" vertex="1">
          <mxGeometry x="220" y="353" width="260" height="40" as="geometry" />
        </mxCell>
        <mxCell id="0IAm7xfOWSde1sFOafxm-32" value="&lt;b&gt;&lt;font style=&quot;font-size: 29px;&quot;&gt;VPC-1&amp;nbsp;&amp;nbsp;&amp;nbsp;&amp;nbsp; 192.168.0.0/16&lt;/font&gt;&lt;/b&gt;" style="text;html=1;align=center;verticalAlign=middle;resizable=0;points=[];autosize=1;strokeColor=none;fillColor=none;" parent="1" vertex="1">
          <mxGeometry x="70" width="340" height="50" as="geometry" />
        </mxCell>
        <mxCell id="0IAm7xfOWSde1sFOafxm-33" value="&lt;b&gt;&lt;font style=&quot;font-size: 29px;&quot;&gt;VPC-2 &amp;nbsp;&amp;nbsp;&amp;nbsp; 10.100.0.0/16&lt;/font&gt;&lt;/b&gt;" style="text;html=1;align=center;verticalAlign=middle;resizable=0;points=[];autosize=1;strokeColor=none;fillColor=none;" parent="1" vertex="1">
          <mxGeometry x="1030" y="20" width="330" height="50" as="geometry" />
        </mxCell>
        <mxCell id="0IAm7xfOWSde1sFOafxm-35" value="&lt;font size=&quot;1&quot;&gt;&lt;span style=&quot;font-size: 62px;&quot;&gt;&lt;b&gt;VPC TRANSIT GATTEWAY&lt;/b&gt;&lt;/span&gt;&lt;/font&gt;" style="text;html=1;align=center;verticalAlign=middle;resizable=0;points=[];autosize=1;strokeColor=none;fillColor=none;" parent="1" vertex="1">
          <mxGeometry x="830" y="-260" width="800" height="90" as="geometry" />
        </mxCell>
        <mxCell id="0IAm7xfOWSde1sFOafxm-36" value="&lt;font style=&quot;font-size: 16px;&quot;&gt;&lt;b&gt;PUBLIC-SERVER-VPC-1&lt;/b&gt;&lt;/font&gt;" style="text;html=1;align=center;verticalAlign=middle;resizable=0;points=[];autosize=1;strokeColor=none;fillColor=none;" parent="1" vertex="1">
          <mxGeometry x="90" y="290" width="210" height="30" as="geometry" />
        </mxCell>
        <mxCell id="0IAm7xfOWSde1sFOafxm-37" value="&lt;font style=&quot;font-size: 16px;&quot;&gt;&lt;b&gt;PRIVATE-SERVER-EC2-2&lt;/b&gt;&lt;/font&gt;" style="text;html=1;align=center;verticalAlign=middle;resizable=0;points=[];autosize=1;strokeColor=none;fillColor=none;" parent="1" vertex="1">
          <mxGeometry x="1190" y="660" width="210" height="30" as="geometry" />
        </mxCell>
        <mxCell id="0IAm7xfOWSde1sFOafxm-38" value="&lt;font style=&quot;font-size: 16px;&quot;&gt;&lt;b&gt;PRIVATE-SERVER-EC2-1&lt;/b&gt;&lt;/font&gt;" style="text;html=1;align=center;verticalAlign=middle;resizable=0;points=[];autosize=1;strokeColor=none;fillColor=none;" parent="1" vertex="1">
          <mxGeometry x="210" y="640" width="210" height="30" as="geometry" />
        </mxCell>
        <mxCell id="Dgg57zCgrIrYqIvuy_MK-1" value="&lt;font style=&quot;font-size: 23px;&quot;&gt;&lt;b&gt;ssh connection&lt;/b&gt;&lt;/font&gt;" style="text;html=1;align=center;verticalAlign=middle;resizable=0;points=[];autosize=1;strokeColor=none;fillColor=none;" vertex="1" parent="1">
          <mxGeometry x="610" y="520" width="190" height="40" as="geometry" />
        </mxCell>
        <mxCell id="Dgg57zCgrIrYqIvuy_MK-2" value="VPC" style="sketch=0;outlineConnect=0;gradientColor=none;html=1;whiteSpace=wrap;fontSize=12;fontStyle=0;shape=mxgraph.aws4.group;grIcon=mxgraph.aws4.group_vpc;strokeColor=#879196;fillColor=none;verticalAlign=top;align=left;spacingLeft=30;fontColor=#879196;dashed=0;" vertex="1" parent="1">
          <mxGeometry x="1890" y="5" width="620" height="790" as="geometry" />
        </mxCell>
        <mxCell id="Dgg57zCgrIrYqIvuy_MK-3" value="&lt;b&gt;&lt;font style=&quot;font-size: 29px;&quot;&gt;VPC-3 &amp;nbsp;&amp;nbsp; 10.200.0.0/16&lt;/font&gt;&lt;/b&gt;" style="text;html=1;align=center;verticalAlign=middle;resizable=0;points=[];autosize=1;strokeColor=none;fillColor=none;" vertex="1" parent="1">
          <mxGeometry x="2015" y="30" width="320" height="50" as="geometry" />
        </mxCell>
        <mxCell id="Dgg57zCgrIrYqIvuy_MK-4" value="Private subnet" style="points=[[0,0],[0.25,0],[0.5,0],[0.75,0],[1,0],[1,0.25],[1,0.5],[1,0.75],[1,1],[0.75,1],[0.5,1],[0.25,1],[0,1],[0,0.75],[0,0.5],[0,0.25]];outlineConnect=0;gradientColor=none;html=1;whiteSpace=wrap;fontSize=12;fontStyle=0;container=1;pointerEvents=0;collapsible=0;recursiveResize=0;shape=mxgraph.aws4.group;grIcon=mxgraph.aws4.group_security_group;grStroke=0;strokeColor=#00A4A6;fillColor=#E6F6F7;verticalAlign=top;align=left;spacingLeft=30;fontColor=#147EBA;dashed=0;" vertex="1" parent="1">
          <mxGeometry x="2030" y="430" width="400" height="240" as="geometry" />
        </mxCell>
        <mxCell id="Dgg57zCgrIrYqIvuy_MK-5" value="&lt;div&gt;&lt;font size=&quot;1&quot;&gt;&lt;b&gt;&lt;font style=&quot;font-size: 18px;&quot;&gt;ROUTE TABLE &lt;/font&gt;&lt;/b&gt;&lt;br&gt;&lt;/font&gt;&lt;/div&gt;" style="text;html=1;align=center;verticalAlign=middle;resizable=0;points=[];autosize=1;strokeColor=none;fillColor=none;" vertex="1" parent="Dgg57zCgrIrYqIvuy_MK-4">
          <mxGeometry x="10" y="130" width="150" height="40" as="geometry" />
        </mxCell>
        <mxCell id="Dgg57zCgrIrYqIvuy_MK-6" value="&lt;font size=&quot;1&quot;&gt;&lt;b style=&quot;font-size: 25px;&quot;&gt;10.200.1.0/24&lt;/b&gt;&lt;/font&gt;" style="text;html=1;align=center;verticalAlign=middle;resizable=0;points=[];autosize=1;strokeColor=none;fillColor=none;" vertex="1" parent="Dgg57zCgrIrYqIvuy_MK-4">
          <mxGeometry x="155" y="10" width="180" height="40" as="geometry" />
        </mxCell>
        <mxCell id="Dgg57zCgrIrYqIvuy_MK-7" value="&lt;div style=&quot;font-size: 24px;&quot;&gt;&lt;b&gt;&lt;font style=&quot;font-size: 24px;&quot;&gt;10.100.0.0/16&lt;/font&gt;&lt;/b&gt;&lt;/div&gt;&lt;div style=&quot;font-size: 24px;&quot;&gt;&lt;b&gt;&lt;font style=&quot;font-size: 24px;&quot;&gt;192.168.0.0/16&lt;br&gt;&lt;/font&gt;&lt;/b&gt;&lt;/div&gt;" style="text;html=1;align=center;verticalAlign=middle;resizable=0;points=[];autosize=1;strokeColor=none;fillColor=none;" vertex="1" parent="Dgg57zCgrIrYqIvuy_MK-4">
          <mxGeometry x="5" y="155" width="180" height="70" as="geometry" />
        </mxCell>
        <mxCell id="Dgg57zCgrIrYqIvuy_MK-8" value="Amazon EC2" style="sketch=0;outlineConnect=0;fontColor=#232F3E;gradientColor=none;strokeColor=#ffffff;fillColor=#232F3E;dashed=0;verticalLabelPosition=middle;verticalAlign=bottom;align=center;html=1;whiteSpace=wrap;fontSize=10;fontStyle=1;spacing=3;shape=mxgraph.aws4.productIcon;prIcon=mxgraph.aws4.ec2;" vertex="1" parent="Dgg57zCgrIrYqIvuy_MK-4">
          <mxGeometry x="220" y="80" width="80" height="100" as="geometry" />
        </mxCell>
        <mxCell id="Dgg57zCgrIrYqIvuy_MK-17" value="&lt;font style=&quot;font-size: 16px;&quot;&gt;&lt;b&gt;PRIVATE-SERVER-EC2-3&lt;/b&gt;&lt;/font&gt;" style="text;html=1;align=center;verticalAlign=middle;resizable=0;points=[];autosize=1;strokeColor=none;fillColor=none;" vertex="1" parent="Dgg57zCgrIrYqIvuy_MK-4">
          <mxGeometry x="190" y="195" width="210" height="30" as="geometry" />
        </mxCell>
        <mxCell id="Dgg57zCgrIrYqIvuy_MK-9" value="&lt;font style=&quot;font-size: 19px;&quot;&gt;&lt;b&gt;ping &amp;amp;&lt;/b&gt;&lt;/font&gt;" style="text;html=1;align=center;verticalAlign=middle;resizable=0;points=[];autosize=1;strokeColor=none;fillColor=none;" vertex="1" parent="1">
          <mxGeometry x="660" y="480" width="80" height="40" as="geometry" />
        </mxCell>
        <mxCell id="Dgg57zCgrIrYqIvuy_MK-10" value="" style="endArrow=classic;html=1;rounded=0;" edge="1" parent="1">
          <mxGeometry width="50" height="50" relative="1" as="geometry">
            <mxPoint x="1500" y="560" as="sourcePoint" />
            <mxPoint x="1880" y="560" as="targetPoint" />
          </mxGeometry>
        </mxCell>
        <mxCell id="Dgg57zCgrIrYqIvuy_MK-11" value="" style="endArrow=classic;html=1;rounded=0;" edge="1" parent="1">
          <mxGeometry width="50" height="50" relative="1" as="geometry">
            <mxPoint x="1880" y="600" as="sourcePoint" />
            <mxPoint x="1500" y="600" as="targetPoint" />
          </mxGeometry>
        </mxCell>
        <mxCell id="Dgg57zCgrIrYqIvuy_MK-12" value="&lt;font style=&quot;font-size: 19px;&quot;&gt;&lt;b&gt;ping &amp;amp;&lt;/b&gt;&lt;/font&gt;" style="text;html=1;align=center;verticalAlign=middle;resizable=0;points=[];autosize=1;strokeColor=none;fillColor=none;" vertex="1" parent="1">
          <mxGeometry x="1640" y="430" width="80" height="40" as="geometry" />
        </mxCell>
        <mxCell id="Dgg57zCgrIrYqIvuy_MK-13" value="&lt;font style=&quot;font-size: 23px;&quot;&gt;&lt;b&gt;ssh connection&lt;/b&gt;&lt;/font&gt;" style="text;html=1;align=center;verticalAlign=middle;resizable=0;points=[];autosize=1;strokeColor=none;fillColor=none;" vertex="1" parent="1">
          <mxGeometry x="1590" y="490" width="190" height="40" as="geometry" />
        </mxCell>
        <mxCell id="Dgg57zCgrIrYqIvuy_MK-14" value="&lt;div align=&quot;left&quot;&gt;&lt;font size=&quot;1&quot;&gt;&lt;b style=&quot;font-size: 26px;&quot;&gt;VPC TRANSIT GATEWAY&lt;/b&gt;&lt;/font&gt;&lt;/div&gt;" style="text;html=1;align=left;verticalAlign=middle;resizable=0;points=[];autosize=1;strokeColor=none;fillColor=none;" vertex="1" parent="1">
          <mxGeometry x="535" y="280" width="330" height="40" as="geometry" />
        </mxCell>
        <mxCell id="Dgg57zCgrIrYqIvuy_MK-16" value="&lt;div align=&quot;left&quot;&gt;&lt;font size=&quot;1&quot;&gt;&lt;b style=&quot;font-size: 26px;&quot;&gt;VPC TRANSIT GATEWAY&lt;/b&gt;&lt;/font&gt;&lt;/div&gt;" style="text;html=1;align=left;verticalAlign=middle;resizable=0;points=[];autosize=1;strokeColor=none;fillColor=none;" vertex="1" parent="1">
          <mxGeometry x="1530" y="280" width="330" height="40" as="geometry" />
        </mxCell>
      </root>
    </mxGraphModel>
  </diagram>
</mxfile>
